PathFileType  4	(X/Y/Z) C:\Users\antoi\Documents\MyRepositories\mobilecap\ResultsAnalysis
DataRate	CameraRate	NumFrames	NumMarkers	Units	OrigDataRate	OrigDataStartFrame	OrigNumFrames
100.0	100.0	7	51	mm	100.0	81	129
Frame#	Time	r_knee			r_shank_antsup			r_ankle			r_calc			r_5meta			r_toe			L_knee			L_shank_antsup			L_ankle			L_calc			L_5meta			L_toe			r_sh2			r_sh3			r_sh4			L_sh2			L_sh3			r_thigh1			r_thigh2			r_thigh3			r_thigh4			r_thigh5			L_thigh1			L_thigh2			L_thigh3			L_thigh4			r.ASIS			r.PSIS			L.ASIS			L.PSIS			C7			R_Shoulder			L_Shoulder			R_Sternum			L_Sternum			R_humerus			R_elbow_med			R_elbow_lat			R_forearm			R_wrist_radius			R_wrist_ulna			L_humerus			L_elbow_med			L_elbow_lat			L_forearm			L_wrist_radius			L_wrist_ulna			R_HJC			L_HJC			R_HJC_reg			L_HJC_reg			
		X1	Y1	Z1	X2	Y2	Z2	X3	Y3	Z3	X4	Y4	Z4	X5	Y5	Z5	X6	Y6	Z6	X7	Y7	Z7	X8	Y8	Z8	X9	Y9	Z9	X10	Y10	Z10	X11	Y11	Z11	X12	Y12	Z12	X13	Y13	Z13	X14	Y14	Z14	X15	Y15	Z15	X16	Y16	Z16	X17	Y17	Z17	X18	Y18	Z18	X19	Y19	Z19	X20	Y20	Z20	X21	Y21	Z21	X22	Y22	Z22	X23	Y23	Z23	X24	Y24	Z24	X25	Y25	Z25	X26	Y26	Z26	X27	Y27	Z27	X28	Y28	Z28	X29	Y29	Z29	X30	Y30	Z30	X31	Y31	Z31	X32	Y32	Z32	X33	Y33	Z33	X34	Y34	Z34	X35	Y35	Z35	X36	Y36	Z36	X37	Y37	Z37	X38	Y38	Z38	X39	Y39	Z39	X40	Y40	Z40	X41	Y41	Z41	X42	Y42	Z42	X43	Y43	Z43	X44	Y44	Z44	X45	Y45	Z45	X46	Y46	Z46	X47	Y47	Z47	X48	Y48	Z48	X49	Y49	Z49	X50	Y50	Z50	X51	Y51	Z51	

81	0.80000000	1002.20812	486.80423	-80.45577	1002.93144	413.12655	-81.41438	737.92610	215.94320	-127.62381	690.34392	235.78087	-183.91923	765.26590	101.42692	-95.89963	818.80875	85.54502	-137.99212	928.24507	466.53118	-362.83102	965.36976	381.99958	-339.96556	888.63531	84.44259	-325.88406	827.18813	52.72421	-286.59008	995.37506	42.06433	-341.68590	1040.11036	60.08330	-282.51779	915.94093	341.11085	-84.71170	954.79556	469.30440	-65.02746	859.35659	402.38612	-75.88208	889.90253	397.44292	-389.32997	877.41740	275.96137	-388.52051	973.17232	735.03237	-66.79398	1015.29190	629.32384	-65.91007	961.81265	584.74976	-64.72505	867.80086	692.66246	-77.65467	914.76080	588.68777	-93.33800	946.59690	742.22762	-435.47657	964.82962	608.88364	-400.15569	837.42131	723.55068	-440.74523	848.73036	600.90472	-383.42060	964.91308	926.86068	-143.49735	753.02075	943.99472	-223.35220	967.50114	930.76904	-365.97671	756.40761	947.49055	-304.45489	857.18745	1396.42544	-259.56112	902.27785	1366.66071	-115.48795	903.30021	1361.71379	-395.42270	978.54912	1325.89102	-231.04225	978.40127	1325.80041	-271.35520	920.04585	1253.87974	-54.65874	828.30204	1051.34786	-58.13073	870.33024	1057.72548	-7.05973	940.05744	992.07810	-4.91280	993.39464	857.67535	-19.89263	969.63020	850.70114	10.86914	910.29237	1260.48616	-466.34193	857.00072	1038.77006	-459.27514	886.05360	1061.63231	-514.95952	955.29198	979.64762	-528.67379	1003.74780	860.04902	-522.10373	975.94780	853.47150	-550.82755	886.29805	834.78158	-154.58941	891.16761	841.20523	-361.94567	897.22310	851.89098	-180.05577	903.34470	858.20995	-326.65797	
82	0.81000000	1021.43094	490.55425	-82.37198	1025.18871	416.87480	-83.17245	768.51809	208.16418	-127.75356	719.07412	224.79714	-183.75978	803.21202	95.82057	-95.98344	857.29054	83.28958	-138.53962	930.48862	466.87773	-363.01268	966.95556	382.11754	-340.50351	888.92195	84.62665	-325.88255	827.51310	53.04402	-286.37831	995.44141	41.97706	-341.71312	1040.13981	59.80437	-282.59418	941.18409	341.34198	-86.19289	974.50285	471.22034	-66.58661	882.20960	400.12361	-76.89382	891.09326	398.04786	-389.18337	877.92480	276.70175	-388.41675	985.95412	737.91019	-66.81143	1030.74089	633.13044	-66.71456	978.29594	587.30440	-65.69851	881.87149	693.08664	-77.86771	931.34805	590.50497	-94.06282	953.80355	741.92472	-436.06446	970.07786	608.68671	-400.23625	844.53500	725.34953	-440.69263	853.97503	602.82048	-382.67749	975.25313	928.14712	-144.27014	763.45090	945.33411	-223.49539	977.73304	931.73050	-366.69421	766.78080	948.87697	-304.48709	868.29631	1397.38888	-260.19490	912.71116	1367.58133	-115.91025	914.83098	1362.76641	-395.81896	989.35997	1326.80620	-231.13069	989.47408	1326.75484	-271.47551	929.04863	1254.82886	-54.45883	835.05887	1053.08826	-58.36556	876.79305	1059.42866	-6.78497	945.40974	992.70364	-3.83704	996.59137	857.32607	-17.88896	972.55608	850.92674	12.80977	922.35307	1261.80300	-466.90577	870.76255	1039.62888	-460.63846	900.01509	1062.86752	-516.17258	970.77989	981.94755	-529.06184	1021.50913	863.42105	-521.67217	994.10978	856.18116	-550.60110	896.73997	836.10463	-154.95267	901.17234	842.30182	-362.32361	907.57732	852.99502	-180.82257	913.60206	859.40515	-327.38420	
83	0.82000000	1039.82033	494.00562	-84.37800	1046.87255	420.48175	-85.09370	799.94027	199.47281	-127.80181	748.66036	212.78364	-183.41885	842.16213	89.82857	-96.32917	896.55624	80.89705	-139.43714	932.66203	467.22537	-363.08565	968.43170	382.26345	-340.97475	889.23736	84.83539	-325.82288	827.97985	53.30793	-286.07818	995.50988	41.90550	-341.71127	1040.06812	59.43654	-282.63984	966.31321	341.22886	-87.69217	993.58119	472.60071	-68.03760	904.83181	397.19591	-77.74988	892.18054	398.67641	-388.96584	878.38489	277.44389	-388.25004	998.28597	740.41655	-66.82412	1045.50689	636.51909	-67.57382	994.00496	589.56130	-66.82039	895.53886	693.39021	-78.15779	947.16737	592.10262	-94.99738	961.34671	741.65095	-436.40639	975.38878	608.45261	-400.04267	851.90289	727.03548	-440.63356	859.37817	604.71276	-381.97761	985.68555	929.22195	-145.18511	773.93491	946.52872	-223.39922	987.90853	932.47540	-367.53023	777.13623	950.05137	-304.29320	879.38505	1398.20188	-260.76119	923.13300	1368.35947	-116.28672	926.32556	1363.72016	-396.16291	1000.14521	1327.67842	-231.21577	1000.50509	1327.61508	-271.58533	938.05232	1255.67757	-54.21363	841.82448	1054.73107	-58.56994	883.26710	1061.04713	-6.47519	950.77880	993.30991	-2.67973	999.91450	857.04019	-15.78533	975.53872	851.19658	14.80698	934.34851	1263.02103	-467.42769	884.40672	1040.42365	-461.96116	913.84419	1064.04003	-517.36318	986.11837	984.22697	-529.41332	1039.19113	866.89790	-521.13672	1012.20813	858.94016	-550.27591	907.32114	837.23342	-155.29428	911.04184	843.19131	-362.68240	917.97009	853.99809	-181.60265	923.76709	860.37700	-328.11804	
84	0.83000000	1057.38946	497.05702	-86.41212	1067.94194	423.85709	-87.12017	832.18535	190.04568	-127.78615	779.17432	199.92335	-182.91538	882.00583	83.63491	-96.93339	936.46011	78.50377	-140.65648	934.80851	467.57415	-363.06572	969.83905	382.42267	-341.34067	889.57242	85.06393	-325.71232	828.52577	53.52587	-285.72721	995.57789	41.84889	-341.68783	1039.91679	58.99617	-282.66407	991.32957	340.74832	-89.12137	1012.09437	473.33902	-69.32228	927.25164	393.59072	-78.42043	893.26665	399.31078	-388.71213	878.86668	278.16945	-388.04626	1010.32014	742.51036	-66.88955	1059.67884	639.45853	-68.47743	1009.01507	591.48424	-68.07451	908.83801	693.56026	-78.57834	962.28987	593.42212	-96.14490	969.22229	741.41229	-436.46719	980.74891	608.17215	-399.57782	859.50486	728.60234	-440.57931	864.88145	606.54340	-381.36052	996.24202	930.09520	-146.18714	784.47876	947.53703	-223.11892	998.04158	932.94233	-368.43671	787.49000	950.99320	-303.92666	890.46175	1398.84547	-261.26297	933.55070	1368.96922	-116.61708	937.79637	1364.54830	-396.45836	1010.91865	1328.48020	-231.29367	1011.47399	1328.32575	-271.69523	947.06180	1256.38984	-53.93358	848.61321	1056.30663	-58.69370	889.76879	1062.54546	-6.14267	956.19389	993.86075	-1.46015	1003.39452	856.77683	-13.58593	978.61927	851.46295	16.84907	946.31936	1264.11311	-467.90469	897.94577	1041.12631	-463.26392	927.54721	1065.12918	-518.54486	1001.30744	986.45694	-529.72593	1056.77183	870.44173	-520.49677	1030.23065	861.72221	-549.86516	918.03406	838.16976	-155.57988	920.82378	843.81744	-362.98730	928.43727	854.82971	-182.37079	933.89400	861.09288	-328.83572	
85	0.84000000	1074.14685	499.62628	-88.42428	1088.36016	426.90883	-89.18586	865.21846	180.07343	-127.74323	810.68263	186.41922	-182.29651	922.58206	77.42017	-97.78916	976.82765	76.24029	-142.14898	936.98537	467.92194	-362.97089	971.23447	382.58093	-341.57213	889.91553	85.30818	-325.55772	829.06628	53.72836	-285.36753	995.64473	41.80503	-341.65140	1039.75888	58.53199	-282.67815	1016.21579	339.89958	-90.44302	1030.09944	473.35090	-70.40059	949.50733	389.29109	-78.86896	894.44717	399.92981	-388.44724	879.43527	278.86622	-387.82340	1022.20999	744.16914	-67.04697	1073.34656	641.92840	-69.41861	1023.40964	593.05809	-69.44646	921.80183	693.60548	-79.16239	976.79806	594.45183	-97.49251	977.36506	741.18286	-436.25424	986.14815	607.83424	-398.87902	867.29515	730.04538	-440.54183	870.42563	608.27142	-380.85544	1006.93408	930.77179	-147.20597	795.08375	948.33280	-222.70516	1008.16104	933.09994	-369.34655	797.86227	951.70094	-303.43905	901.53028	1399.30584	-261.70655	943.97347	1369.38811	-116.90318	949.25726	1365.22651	-396.70887	1021.69968	1329.17013	-231.35685	1022.36921	1328.83753	-271.81081	956.08176	1256.93155	-53.62793	855.45292	1057.81411	-58.71326	896.31548	1063.89152	-5.79832	961.68052	994.32104	-0.19662	1007.04757	856.49106	-11.29874	981.84290	851.67793	18.92356	958.29609	1265.05680	-468.33569	911.39473	1041.70719	-464.56513	941.13549	1066.11012	-519.72267	1016.36080	988.61462	-529.99327	1074.23921	874.01040	-519.75104	1048.16918	864.50326	-549.37639	928.85646	838.91432	-155.77746	930.57345	844.15357	-363.20459	938.99872	855.43475	-183.09641	944.03670	861.54204	-329.50545	
86	0.85000000	1090.09312	501.65116	-90.38544	1108.08909	429.56314	-91.23451	898.98799	169.75938	-127.72203	843.21680	172.49633	-181.62513	963.71132	71.37204	-98.87627	1017.47669	74.24163	-143.85347	939.25664	468.26021	-362.81806	972.68052	382.72535	-341.65647	890.25522	85.56868	-325.36299	829.52193	53.95456	-285.03147	995.71165	41.77094	-341.60870	1039.69981	58.11250	-282.69297	1040.93062	338.71104	-91.66317	1047.61794	472.59236	-71.26940	971.63631	384.29630	-79.07587	895.79414	400.51517	-388.18198	880.14346	279.52839	-387.58572	1034.05812	745.38263	-67.30521	1086.58260	643.90647	-70.39737	1037.25733	594.27653	-70.92643	934.46036	693.54152	-79.91751	990.75895	595.21209	-99.01219	985.67081	740.91347	-435.81725	991.58092	607.42551	-398.01056	875.21608	731.36119	-440.52666	875.96626	609.85763	-380.47915	1017.75305	931.24590	-148.17035	805.74883	948.90334	-222.19584	1018.30538	932.94650	-370.19019	808.27553	952.18048	-302.87177	912.59138	1399.57344	-262.09946	954.40956	1369.59687	-117.14832	960.72060	1365.73383	-396.91700	1032.50736	1329.69857	-231.39754	1033.20094	1329.12049	-271.92848	965.12126	1257.27404	-53.30582	862.38191	1059.21953	-58.63872	902.92667	1065.05673	-5.45169	967.26183	994.65938	1.09486	1010.87755	856.13734	-8.93658	985.25443	851.80083	21.01834	970.29835	1265.83464	-468.72023	924.76558	1042.13979	-465.87694	954.62772	1066.95606	-520.89411	1031.30217	990.68157	-530.20799	1091.59079	877.55881	-518.89797	1066.01706	867.25895	-548.80948	939.75963	839.46087	-155.86394	940.34590	844.19932	-363.30885	949.65526	855.78315	-183.74554	954.23854	861.72766	-330.09194	
87	0.86000000	1105.22701	503.08804	-92.29094	1127.08920	431.78156	-93.23615	933.43604	159.31823	-127.76552	876.75454	158.40130	-180.95603	1005.22190	65.69669	-100.15634	1058.23365	72.65839	-145.70636	941.68022	468.57262	-362.62370	974.22973	382.84432	-341.60360	890.58153	85.85182	-325.13083	829.84267	54.23816	-284.73286	995.78047	41.74322	-341.56356	1039.83558	57.80051	-282.71678	1065.41223	337.24026	-92.81458	1064.62510	471.07204	-71.97495	993.66373	378.64297	-79.06251	897.34600	401.05649	-387.91494	881.02371	280.15584	-387.32636	1045.88518	746.14673	-67.64366	1099.43365	645.36348	-71.42080	1050.60020	595.13240	-72.50364	946.84107	693.37777	-80.82255	1004.20511	595.72981	-100.65474	994.02220	740.54442	-435.23780	997.04151	606.93072	-397.05078	883.21093	732.54821	-440.52976	881.48257	611.26907	-380.23546	1028.67908	931.50217	-149.02037	816.47491	949.24522	-221.61370	1028.51390	932.50377	-370.91082	818.75512	952.43638	-302.25148	923.64525	1399.64226	-262.44700	964.86539	1369.57929	-117.35624	972.19473	1366.05381	-397.08413	1043.35370	1330.01744	-231.41188	1044.00532	1329.17017	-272.03552	974.19655	1257.39645	-52.97748	869.44369	1060.46662	-58.50758	909.62356	1066.01690	-5.11106	972.95953	994.84970	2.40130	1014.88126	855.67561	-6.51768	988.89105	851.80288	23.12276	982.33469	1266.43334	-469.05751	938.06473	1042.40494	-467.20177	968.04792	1067.64261	-522.05268	1046.15671	992.64043	-530.36487	1108.83149	881.04109	-517.93685	1083.76736	869.96180	-548.15772	950.71979	839.79590	-155.82869	950.19050	843.97282	-363.28728	960.39327	855.87048	-184.28638	964.53008	861.65951	-330.56415	
